<?xml version="1.0" encoding="utf-8"?>
<!-- Generator: Adobe Illustrator 21.0.0, SVG Export Plug-In . SVG Version: 6.00 Build 0)  -->
<svg version="1.1" id="Layer_1" xmlns="http://www.w3.org/2000/svg" xmlns:xlink="http://www.w3.org/1999/xlink" x="0px" y="0px"
	 viewBox="0 0 2272 1872" style="enable-background:new 0 0 2272 1872;" xml:space="preserve">
<style type="text/css">
	.st0{clip-path:url(#SVGID_2_);fill:#B27E32;}
	.st1{clip-path:url(#SVGID_2_);}
	.st2{fill:#D3994C;}
	.st3{fill:#FFE69F;}
	.st4{fill:#FFC400;}
	.st5{fill:#D39D05;}
	.st6{fill:#4F3D0B;}
	.st7{fill:#FFFFFF;}
	.st8{fill:#FFDD7D;}
	.st9{fill:#FFC001;}
	.st10{fill:#CAEFEC;}
</style>
<g id="Layer_1_1_">
</g>
<g id="Layer_2">
</g>
<g>
	<defs>
		<rect id="SVGID_1_" y="0.3" width="2272" height="1873.3"/>
	</defs>
	<clipPath id="SVGID_2_">
		<use xlink:href="#SVGID_1_"  style="overflow:visible;"/>
	</clipPath>
	<rect y="0.3" class="st0" width="2272" height="1873.3"/>
	<g class="st1">
		<g>
			<path class="st2" d="M702.2,170.6L702.2,170.6c0-53.4-43.3-96.7-96.7-96.7H303.8c-53.4,0-96.7,43.3-96.7,96.7v0
				c0,53.4,43.3,96.7,96.7,96.7h278.4c0,24.5,12.2,70.8,102.2,75.2c0,0-51.1-17.1-45.4-81.2C675.9,247.7,702.2,212.2,702.2,170.6z"
				/>
			<path class="st3" d="M384.8,132.7H263.4c-4.6,0-8.4,3.7-8.4,8.4l0,0c0,4.6,3.7,8.4,8.4,8.4h121.4c4.6,0,8.4-3.7,8.4-8.4l0,0
				C393.2,136.4,389.4,132.7,384.8,132.7z"/>
			<path class="st3" d="M536.8,132.7H415.4c-4.6,0-8.4,3.7-8.4,8.4l0,0c0,4.6,3.7,8.4,8.4,8.4h121.4c4.6,0,8.4-3.7,8.4-8.4l0,0
				C545.1,136.4,541.4,132.7,536.8,132.7z"/>
			<path class="st3" d="M651.3,132.7h-78.9c-4.6,0-8.4,3.7-8.4,8.4l0,0c0,4.6,3.7,8.4,8.4,8.4h78.9c4.6,0,8.4-3.7,8.4-8.4l0,0
				C659.6,136.4,655.9,132.7,651.3,132.7z"/>
			<path class="st3" d="M384.8,186.8H263.4c-4.6,0-8.4,3.7-8.4,8.4l0,0c0,4.6,3.7,8.4,8.4,8.4h121.4c4.6,0,8.4-3.7,8.4-8.4l0,0
				C393.2,190.6,389.4,186.8,384.8,186.8z"/>
			<path class="st3" d="M536.8,186.8H415.4c-4.6,0-8.4,3.7-8.4,8.4l0,0c0,4.6,3.7,8.4,8.4,8.4h121.4c4.6,0,8.4-3.7,8.4-8.4l0,0
				C545.1,190.6,541.4,186.8,536.8,186.8z"/>
			<path class="st3" d="M651.3,186.8h-78.9c-4.6,0-8.4,3.7-8.4,8.4l0,0c0,4.6,3.7,8.4,8.4,8.4h78.9c4.6,0,8.4-3.7,8.4-8.4l0,0
				C659.6,190.6,655.9,186.8,651.3,186.8z"/>
		</g>
		<g>
			<path class="st2" d="M1244.5,491L1244.5,491c0-41.7-33.8-75.5-75.5-75.5H933.4c-41.7,0-75.5,33.8-75.5,75.5v0
				c0,41.7,33.8,75.5,75.5,75.5h217.4c0,19.2,9.5,55.3,79.8,58.7c0,0-39.9-13.3-35.5-63.4C1224,551.2,1244.5,523.5,1244.5,491z"/>
			<path class="st3" d="M996.7,461.4h-94.8c-3.6,0-6.5,2.9-6.5,6.5l0,0c0,3.6,2.9,6.5,6.5,6.5h94.8c3.6,0,6.5-2.9,6.5-6.5l0,0
				C1003.3,464.3,1000.3,461.4,996.7,461.4z"/>
			<path class="st3" d="M1115.4,461.4h-94.8c-3.6,0-6.5,2.9-6.5,6.5l0,0c0,3.6,2.9,6.5,6.5,6.5h94.8c3.6,0,6.5-2.9,6.5-6.5l0,0
				C1121.9,464.3,1119,461.4,1115.4,461.4z"/>
			<path class="st3" d="M1204.8,461.4h-61.6c-3.6,0-6.5,2.9-6.5,6.5l0,0c0,3.6,2.9,6.5,6.5,6.5h61.6c3.6,0,6.5-2.9,6.5-6.5l0,0
				C1211.3,464.3,1208.4,461.4,1204.8,461.4z"/>
			<path class="st3" d="M996.7,503.7h-94.8c-3.6,0-6.5,2.9-6.5,6.5l0,0c0,3.6,2.9,6.5,6.5,6.5h94.8c3.6,0,6.5-2.9,6.5-6.5l0,0
				C1003.3,506.6,1000.3,503.7,996.7,503.7z"/>
			<path class="st3" d="M1115.4,503.7h-94.8c-3.6,0-6.5,2.9-6.5,6.5l0,0c0,3.6,2.9,6.5,6.5,6.5h94.8c3.6,0,6.5-2.9,6.5-6.5l0,0
				C1121.9,506.6,1119,503.7,1115.4,503.7z"/>
			<path class="st3" d="M1204.8,503.7h-61.6c-3.6,0-6.5,2.9-6.5,6.5l0,0c0,3.6,2.9,6.5,6.5,6.5h61.6c3.6,0,6.5-2.9,6.5-6.5l0,0
				C1211.3,506.6,1208.4,503.7,1204.8,503.7z"/>
		</g>
		<g>
			<path class="st2" d="M85.3,1103L85.3,1103c0-41.7-33.8-75.5-75.5-75.5h-235.6c-41.7,0-75.5,33.8-75.5,75.5v0
				c0,41.7,33.8,75.5,75.5,75.5H-8.4c0,19.2,9.5,55.3,79.8,58.7c0,0-39.9-13.3-35.5-63.4C64.7,1163.3,85.3,1135.6,85.3,1103z"/>
			<path class="st3" d="M-162.6,1073.5h-94.8c-3.6,0-6.5,2.9-6.5,6.5l0,0c0,3.6,2.9,6.5,6.5,6.5h94.8c3.6,0,6.5-2.9,6.5-6.5l0,0
				C-156,1076.4-158.9,1073.5-162.6,1073.5z"/>
			<path class="st3" d="M-43.9,1073.5h-94.8c-3.6,0-6.5,2.9-6.5,6.5l0,0c0,3.6,2.9,6.5,6.5,6.5h94.8c3.6,0,6.5-2.9,6.5-6.5l0,0
				C-37.4,1076.4-40.3,1073.5-43.9,1073.5z"/>
			<path class="st3" d="M45.5,1073.5h-61.6c-3.6,0-6.5,2.9-6.5,6.5l0,0c0,3.6,2.9,6.5,6.5,6.5h61.6c3.6,0,6.5-2.9,6.5-6.5l0,0
				C52,1076.4,49.1,1073.5,45.5,1073.5z"/>
			<path class="st3" d="M-162.6,1115.7h-94.8c-3.6,0-6.5,2.9-6.5,6.5l0,0c0,3.6,2.9,6.5,6.5,6.5h94.8c3.6,0,6.5-2.9,6.5-6.5l0,0
				C-156,1118.7-158.9,1115.7-162.6,1115.7z"/>
			<path class="st3" d="M-43.9,1115.7h-94.8c-3.6,0-6.5,2.9-6.5,6.5l0,0c0,3.6,2.9,6.5,6.5,6.5h94.8c3.6,0,6.5-2.9,6.5-6.5l0,0
				C-37.4,1118.7-40.3,1115.7-43.9,1115.7z"/>
			<path class="st3" d="M45.5,1115.7h-61.6c-3.6,0-6.5,2.9-6.5,6.5l0,0c0,3.6,2.9,6.5,6.5,6.5h61.6c3.6,0,6.5-2.9,6.5-6.5l0,0
				C52,1118.7,49.1,1115.7,45.5,1115.7z"/>
		</g>
		<g>
			<path class="st2" d="M241.1,565.3L241.1,565.3c0-41.7-33.8-75.5-75.5-75.5H-70c-41.7,0-75.5,33.8-75.5,75.5v0
				c0,41.7,33.8,75.5,75.5,75.5h217.4c0,19.2,9.5,55.3,79.8,58.7c0,0-39.9-13.3-35.5-63.4C220.6,625.5,241.1,597.8,241.1,565.3z"/>
			<path class="st3" d="M-6.7,535.7h-94.8c-3.6,0-6.5,2.9-6.5,6.5l0,0c0,3.6,2.9,6.5,6.5,6.5h94.8c3.6,0,6.5-2.9,6.5-6.5l0,0
				C-0.2,538.6-3.1,535.7-6.7,535.7z"/>
			<path class="st3" d="M111.9,535.7H17.1c-3.6,0-6.5,2.9-6.5,6.5l0,0c0,3.6,2.9,6.5,6.5,6.5h94.8c3.6,0,6.5-2.9,6.5-6.5l0,0
				C118.5,538.6,115.5,535.7,111.9,535.7z"/>
			<path class="st3" d="M201.3,535.7h-61.6c-3.6,0-6.5,2.9-6.5,6.5l0,0c0,3.6,2.9,6.5,6.5,6.5h61.6c3.6,0,6.5-2.9,6.5-6.5l0,0
				C207.9,538.6,204.9,535.7,201.3,535.7z"/>
			<path class="st3" d="M-6.7,578h-94.8c-3.6,0-6.5,2.9-6.5,6.5l0,0c0,3.6,2.9,6.5,6.5,6.5h94.8c3.6,0,6.5-2.9,6.5-6.5l0,0
				C-0.2,580.9-3.1,578-6.7,578z"/>
			<path class="st3" d="M111.9,578H17.1c-3.6,0-6.5,2.9-6.5,6.5l0,0c0,3.6,2.9,6.5,6.5,6.5h94.8c3.6,0,6.5-2.9,6.5-6.5l0,0
				C118.5,580.9,115.5,578,111.9,578z"/>
			<path class="st3" d="M201.3,578h-61.6c-3.6,0-6.5,2.9-6.5,6.5l0,0c0,3.6,2.9,6.5,6.5,6.5h61.6c3.6,0,6.5-2.9,6.5-6.5l0,0
				C207.9,580.9,204.9,578,201.3,578z"/>
		</g>
		<g>
			<path class="st2" d="M471.6,1510.3L471.6,1510.3c0-41.7-33.8-75.5-75.5-75.5H160.5c-41.7,0-75.5,33.8-75.5,75.5v0
				c0,41.7,33.8,75.5,75.5,75.5h217.4c0,19.2,9.5,55.3,79.8,58.7c0,0-39.9-13.3-35.5-63.4C451.1,1570.5,471.6,1542.8,471.6,1510.3z"
				/>
			<path class="st3" d="M223.8,1480.7H129c-3.6,0-6.5,2.9-6.5,6.5l0,0c0,3.6,2.9,6.5,6.5,6.5h94.8c3.6,0,6.5-2.9,6.5-6.5l0,0
				C230.3,1483.6,227.4,1480.7,223.8,1480.7z"/>
			<path class="st3" d="M342.4,1480.7h-94.8c-3.6,0-6.5,2.9-6.5,6.5l0,0c0,3.6,2.9,6.5,6.5,6.5h94.8c3.6,0,6.5-2.9,6.5-6.5l0,0
				C349,1483.6,346,1480.7,342.4,1480.7z"/>
			<path class="st3" d="M431.8,1480.7h-61.6c-3.6,0-6.5,2.9-6.5,6.5l0,0c0,3.6,2.9,6.5,6.5,6.5h61.6c3.6,0,6.5-2.9,6.5-6.5l0,0
				C438.4,1483.6,435.5,1480.7,431.8,1480.7z"/>
			<path class="st3" d="M223.8,1523H129c-3.6,0-6.5,2.9-6.5,6.5l0,0c0,3.6,2.9,6.5,6.5,6.5h94.8c3.6,0,6.5-2.9,6.5-6.5l0,0
				C230.3,1525.9,227.4,1523,223.8,1523z"/>
			<path class="st3" d="M342.4,1523h-94.8c-3.6,0-6.5,2.9-6.5,6.5l0,0c0,3.6,2.9,6.5,6.5,6.5h94.8c3.6,0,6.5-2.9,6.5-6.5l0,0
				C349,1525.9,346,1523,342.4,1523z"/>
			<path class="st3" d="M431.8,1523h-61.6c-3.6,0-6.5,2.9-6.5,6.5l0,0c0,3.6,2.9,6.5,6.5,6.5h61.6c3.6,0,6.5-2.9,6.5-6.5l0,0
				C438.4,1525.9,435.5,1523,431.8,1523z"/>
		</g>
		<g>
			<path class="st2" d="M1938.3,1103L1938.3,1103c0-41.7-33.8-75.5-75.5-75.5h-235.6c-41.7,0-75.5,33.8-75.5,75.5v0
				c0,41.7,33.8,75.5,75.5,75.5h217.4c0,19.2,9.5,55.3,79.8,58.7c0,0-39.9-13.3-35.5-63.4C1917.8,1163.3,1938.3,1135.6,1938.3,1103z
				"/>
			<path class="st3" d="M1690.5,1073.5h-94.8c-3.6,0-6.5,2.9-6.5,6.5l0,0c0,3.6,2.9,6.5,6.5,6.5h94.8c3.6,0,6.5-2.9,6.5-6.5l0,0
				C1697,1076.4,1694.1,1073.5,1690.5,1073.5z"/>
			<path class="st3" d="M1809.1,1073.5h-94.8c-3.6,0-6.5,2.9-6.5,6.5l0,0c0,3.6,2.9,6.5,6.5,6.5h94.8c3.6,0,6.5-2.9,6.5-6.5l0,0
				C1815.7,1076.4,1812.8,1073.5,1809.1,1073.5z"/>
			<path class="st3" d="M1898.6,1073.5H1837c-3.6,0-6.5,2.9-6.5,6.5l0,0c0,3.6,2.9,6.5,6.5,6.5h61.6c3.6,0,6.5-2.9,6.5-6.5l0,0
				C1905.1,1076.4,1902.2,1073.5,1898.6,1073.5z"/>
			<path class="st3" d="M1690.5,1115.7h-94.8c-3.6,0-6.5,2.9-6.5,6.5l0,0c0,3.6,2.9,6.5,6.5,6.5h94.8c3.6,0,6.5-2.9,6.5-6.5l0,0
				C1697,1118.7,1694.1,1115.7,1690.5,1115.7z"/>
			<path class="st3" d="M1809.1,1115.7h-94.8c-3.6,0-6.5,2.9-6.5,6.5l0,0c0,3.6,2.9,6.5,6.5,6.5h94.8c3.6,0,6.5-2.9,6.5-6.5l0,0
				C1815.7,1118.7,1812.8,1115.7,1809.1,1115.7z"/>
			<path class="st3" d="M1898.6,1115.7H1837c-3.6,0-6.5,2.9-6.5,6.5l0,0c0,3.6,2.9,6.5,6.5,6.5h61.6c3.6,0,6.5-2.9,6.5-6.5l0,0
				C1905.1,1118.7,1902.2,1115.7,1898.6,1115.7z"/>
		</g>
		<g>
			<path class="st2" d="M2555.7,989.3L2555.7,989.3c0-41.7-33.8-75.5-75.5-75.5h-235.6c-41.7,0-75.5,33.8-75.5,75.5v0
				c0,41.7,33.8,75.5,75.5,75.5H2462c0,19.2,9.5,55.3,79.8,58.7c0,0-39.9-13.3-35.5-63.4C2535.2,1049.5,2555.7,1021.8,2555.7,989.3z
				"/>
			<path class="st3" d="M2307.9,959.7h-94.8c-3.6,0-6.5,2.9-6.5,6.5l0,0c0,3.6,2.9,6.5,6.5,6.5h94.8c3.6,0,6.5-2.9,6.5-6.5l0,0
				C2314.5,962.6,2311.5,959.7,2307.9,959.7z"/>
			<path class="st3" d="M2426.6,959.7h-94.8c-3.6,0-6.5,2.9-6.5,6.5l0,0c0,3.6,2.9,6.5,6.5,6.5h94.8c3.6,0,6.5-2.9,6.5-6.5l0,0
				C2433.1,962.6,2430.2,959.7,2426.6,959.7z"/>
			<path class="st3" d="M2516,959.7h-61.6c-3.6,0-6.5,2.9-6.5,6.5l0,0c0,3.6,2.9,6.5,6.5,6.5h61.6c3.6,0,6.5-2.9,6.5-6.5l0,0
				C2522.5,962.6,2519.6,959.7,2516,959.7z"/>
			<path class="st3" d="M2307.9,1002h-94.8c-3.6,0-6.5,2.9-6.5,6.5l0,0c0,3.6,2.9,6.5,6.5,6.5h94.8c3.6,0,6.5-2.9,6.5-6.5l0,0
				C2314.5,1004.9,2311.5,1002,2307.9,1002z"/>
			<path class="st3" d="M2426.6,1002h-94.8c-3.6,0-6.5,2.9-6.5,6.5l0,0c0,3.6,2.9,6.5,6.5,6.5h94.8c3.6,0,6.5-2.9,6.5-6.5l0,0
				C2433.1,1004.9,2430.2,1002,2426.6,1002z"/>
			<path class="st3" d="M2516,1002h-61.6c-3.6,0-6.5,2.9-6.5,6.5l0,0c0,3.6,2.9,6.5,6.5,6.5h61.6c3.6,0,6.5-2.9,6.5-6.5l0,0
				C2522.5,1004.9,2519.6,1002,2516,1002z"/>
		</g>
		<g>
			<path class="st2" d="M2563.2,230.8L2563.2,230.8c0-54.2-43.9-98.1-98.1-98.1h-305.8c-54.2,0-98.1,43.9-98.1,98.1v0
				c0,54.2,43.9,98.1,98.1,98.1h282.3c0,24.9,12.4,71.7,103.7,76.2c0,0-51.8-17.3-46.1-82.3C2536.6,309,2563.2,273,2563.2,230.8z"/>
			<path class="st3" d="M2241.5,192.4h-123.1c-4.7,0-8.5,3.8-8.5,8.5l0,0c0,4.7,3.8,8.5,8.5,8.5h123.1c4.7,0,8.5-3.8,8.5-8.5l0,0
				C2250,196.2,2246.2,192.4,2241.5,192.4z"/>
			<path class="st3" d="M2395.5,192.4h-123.1c-4.7,0-8.5,3.8-8.5,8.5l0,0c0,4.7,3.8,8.5,8.5,8.5h123.1c4.7,0,8.5-3.8,8.5-8.5l0,0
				C2404,196.2,2400.2,192.4,2395.5,192.4z"/>
			<path class="st3" d="M2511.6,192.4h-79.9c-4.7,0-8.5,3.8-8.5,8.5l0,0c0,4.7,3.8,8.5,8.5,8.5h79.9c4.7,0,8.5-3.8,8.5-8.5l0,0
				C2520.1,196.2,2516.3,192.4,2511.6,192.4z"/>
			<path class="st3" d="M2241.5,247.3h-123.1c-4.7,0-8.5,3.8-8.5,8.5l0,0c0,4.7,3.8,8.5,8.5,8.5h123.1c4.7,0,8.5-3.8,8.5-8.5l0,0
				C2250,251.1,2246.2,247.3,2241.5,247.3z"/>
			<path class="st3" d="M2395.5,247.3h-123.1c-4.7,0-8.5,3.8-8.5,8.5l0,0c0,4.7,3.8,8.5,8.5,8.5h123.1c4.7,0,8.5-3.8,8.5-8.5l0,0
				C2404,251.1,2400.2,247.3,2395.5,247.3z"/>
			<path class="st3" d="M2511.6,247.3h-79.9c-4.7,0-8.5,3.8-8.5,8.5l0,0c0,4.7,3.8,8.5,8.5,8.5h79.9c4.7,0,8.5-3.8,8.5-8.5l0,0
				C2520.1,251.1,2516.3,247.3,2511.6,247.3z"/>
		</g>
		<g>
			<path class="st2" d="M1697.3,1765.1L1697.3,1765.1c0-41.7-33.8-75.5-75.5-75.5h-235.6c-41.7,0-75.5,33.8-75.5,75.5v0
				c0,41.7,33.8,75.5,75.5,75.5h217.4c0,19.2,9.5,55.3,79.8,58.7c0,0-39.9-13.3-35.5-63.4
				C1676.8,1825.3,1697.3,1797.6,1697.3,1765.1z"/>
			<path class="st3" d="M1449.5,1735.5h-94.8c-3.6,0-6.5,2.9-6.5,6.5l0,0c0,3.6,2.9,6.5,6.5,6.5h94.8c3.6,0,6.5-2.9,6.5-6.5l0,0
				C1456,1738.4,1453.1,1735.5,1449.5,1735.5z"/>
			<path class="st3" d="M1568.1,1735.5h-94.8c-3.6,0-6.5,2.9-6.5,6.5l0,0c0,3.6,2.9,6.5,6.5,6.5h94.8c3.6,0,6.5-2.9,6.5-6.5l0,0
				C1574.7,1738.4,1571.8,1735.5,1568.1,1735.5z"/>
			<path class="st3" d="M1657.6,1735.5H1596c-3.6,0-6.5,2.9-6.5,6.5l0,0c0,3.6,2.9,6.5,6.5,6.5h61.6c3.6,0,6.5-2.9,6.5-6.5l0,0
				C1664.1,1738.4,1661.2,1735.5,1657.6,1735.5z"/>
			<path class="st3" d="M1449.5,1777.8h-94.8c-3.6,0-6.5,2.9-6.5,6.5l0,0c0,3.6,2.9,6.5,6.5,6.5h94.8c3.6,0,6.5-2.9,6.5-6.5l0,0
				C1456,1780.7,1453.1,1777.8,1449.5,1777.8z"/>
			<path class="st3" d="M1568.1,1777.8h-94.8c-3.6,0-6.5,2.9-6.5,6.5l0,0c0,3.6,2.9,6.5,6.5,6.5h94.8c3.6,0,6.5-2.9,6.5-6.5l0,0
				C1574.7,1780.7,1571.8,1777.8,1568.1,1777.8z"/>
			<path class="st3" d="M1657.6,1777.8H1596c-3.6,0-6.5,2.9-6.5,6.5l0,0c0,3.6,2.9,6.5,6.5,6.5h61.6c3.6,0,6.5-2.9,6.5-6.5l0,0
				C1664.1,1780.7,1661.2,1777.8,1657.6,1777.8z"/>
		</g>
		<g>
			<path class="st2" d="M1393.6,1391.6L1393.6,1391.6c0-41.7-33.8-75.5-75.5-75.5h-235.6c-41.7,0-75.5,33.8-75.5,75.5v0
				c0,41.7,33.8,75.5,75.5,75.5h217.4c0,19.2,9.5,55.3,79.8,58.7c0,0-39.9-13.3-35.5-63.4C1373,1451.8,1393.6,1424.1,1393.6,1391.6z
				"/>
			<path class="st3" d="M1145.7,1362h-94.8c-3.6,0-6.5,2.9-6.5,6.5l0,0c0,3.6,2.9,6.5,6.5,6.5h94.8c3.6,0,6.5-2.9,6.5-6.5l0,0
				C1152.3,1364.9,1149.3,1362,1145.7,1362z"/>
			<path class="st3" d="M1264.4,1362h-94.8c-3.6,0-6.5,2.9-6.5,6.5l0,0c0,3.6,2.9,6.5,6.5,6.5h94.8c3.6,0,6.5-2.9,6.5-6.5l0,0
				C1270.9,1364.9,1268,1362,1264.4,1362z"/>
			<path class="st3" d="M1353.8,1362h-61.6c-3.6,0-6.5,2.9-6.5,6.5l0,0c0,3.6,2.9,6.5,6.5,6.5h61.6c3.6,0,6.5-2.9,6.5-6.5l0,0
				C1360.3,1364.9,1357.4,1362,1353.8,1362z"/>
			<path class="st3" d="M1145.7,1404.3h-94.8c-3.6,0-6.5,2.9-6.5,6.5l0,0c0,3.6,2.9,6.5,6.5,6.5h94.8c3.6,0,6.5-2.9,6.5-6.5l0,0
				C1152.3,1407.2,1149.3,1404.3,1145.7,1404.3z"/>
			<path class="st3" d="M1264.4,1404.3h-94.8c-3.6,0-6.5,2.9-6.5,6.5l0,0c0,3.6,2.9,6.5,6.5,6.5h94.8c3.6,0,6.5-2.9,6.5-6.5l0,0
				C1270.9,1407.2,1268,1404.3,1264.4,1404.3z"/>
			<path class="st3" d="M1353.8,1404.3h-61.6c-3.6,0-6.5,2.9-6.5,6.5l0,0c0,3.6,2.9,6.5,6.5,6.5h61.6c3.6,0,6.5-2.9,6.5-6.5l0,0
				C1360.3,1407.2,1357.4,1404.3,1353.8,1404.3z"/>
		</g>
		<g>
			<path class="st2" d="M2291.7,1461.7L2291.7,1461.7c0-41.7-33.8-75.5-75.5-75.5h-235.6c-41.7,0-75.5,33.8-75.5,75.5v0
				c0,41.7,33.8,75.5,75.5,75.5H2198c0,19.2,9.5,55.3,79.8,58.7c0,0-39.9-13.3-35.5-63.4C2271.2,1521.9,2291.7,1494.2,2291.7,1461.7
				z"/>
			<path class="st3" d="M2043.9,1432.2h-94.8c-3.6,0-6.5,2.9-6.5,6.5l0,0c0,3.6,2.9,6.5,6.5,6.5h94.8c3.6,0,6.5-2.9,6.5-6.5l0,0
				C2050.4,1435.1,2047.5,1432.2,2043.9,1432.2z"/>
			<path class="st3" d="M2162.6,1432.2h-94.8c-3.6,0-6.5,2.9-6.5,6.5l0,0c0,3.6,2.9,6.5,6.5,6.5h94.8c3.6,0,6.5-2.9,6.5-6.5l0,0
				C2169.1,1435.1,2166.2,1432.2,2162.6,1432.2z"/>
			<path class="st3" d="M2252,1432.2h-61.6c-3.6,0-6.5,2.9-6.5,6.5l0,0c0,3.6,2.9,6.5,6.5,6.5h61.6c3.6,0,6.5-2.9,6.5-6.5l0,0
				C2258.5,1435.1,2255.6,1432.2,2252,1432.2z"/>
			<path class="st3" d="M2043.9,1474.4h-94.8c-3.6,0-6.5,2.9-6.5,6.5l0,0c0,3.6,2.9,6.5,6.5,6.5h94.8c3.6,0,6.5-2.9,6.5-6.5l0,0
				C2050.4,1477.3,2047.5,1474.4,2043.9,1474.4z"/>
			<path class="st3" d="M2162.6,1474.4h-94.8c-3.6,0-6.5,2.9-6.5,6.5l0,0c0,3.6,2.9,6.5,6.5,6.5h94.8c3.6,0,6.5-2.9,6.5-6.5l0,0
				C2169.1,1477.3,2166.2,1474.4,2162.6,1474.4z"/>
			<path class="st3" d="M2252,1474.4h-61.6c-3.6,0-6.5,2.9-6.5,6.5l0,0c0,3.6,2.9,6.5,6.5,6.5h61.6c3.6,0,6.5-2.9,6.5-6.5l0,0
				C2258.5,1477.3,2255.6,1474.4,2252,1474.4z"/>
		</g>
		<g>
			<path class="st2" d="M1682.7,201.8L1682.7,201.8c0-50.5-41-91.5-91.5-91.5h-285.3c-50.5,0-91.5,41-91.5,91.5v0
				c0,50.5,41,91.5,91.5,91.5h263.3c0,23.2,11.5,66.9,96.7,71.1c0,0-48.3-16.1-43-76.8C1657.9,274.7,1682.7,241.2,1682.7,201.8z"/>
			<path class="st3" d="M1382.5,166h-114.8c-4.4,0-7.9,3.5-7.9,7.9l0,0c0,4.4,3.5,7.9,7.9,7.9h114.8c4.4,0,7.9-3.5,7.9-7.9l0,0
				C1390.5,169.5,1386.9,166,1382.5,166z"/>
			<path class="st3" d="M1526.3,166h-114.8c-4.4,0-7.9,3.5-7.9,7.9l0,0c0,4.4,3.5,7.9,7.9,7.9h114.8c4.4,0,7.9-3.5,7.9-7.9l0,0
				C1534.2,169.5,1530.6,166,1526.3,166z"/>
			<path class="st3" d="M1634.6,166H1560c-4.4,0-7.9,3.5-7.9,7.9l0,0c0,4.4,3.5,7.9,7.9,7.9h74.6c4.4,0,7.9-3.5,7.9-7.9l0,0
				C1642.5,169.5,1638.9,166,1634.6,166z"/>
			<path class="st3" d="M1382.5,217.2h-114.8c-4.4,0-7.9,3.5-7.9,7.9l0,0c0,4.4,3.5,7.9,7.9,7.9h114.8c4.4,0,7.9-3.5,7.9-7.9l0,0
				C1390.5,220.7,1386.9,217.2,1382.5,217.2z"/>
			<path class="st3" d="M1526.3,217.2h-114.8c-4.4,0-7.9,3.5-7.9,7.9l0,0c0,4.4,3.5,7.9,7.9,7.9h114.8c4.4,0,7.9-3.5,7.9-7.9l0,0
				C1534.2,220.7,1530.6,217.2,1526.3,217.2z"/>
			<path class="st3" d="M1634.6,217.2H1560c-4.4,0-7.9,3.5-7.9,7.9l0,0c0,4.4,3.5,7.9,7.9,7.9h74.6c4.4,0,7.9-3.5,7.9-7.9l0,0
				C1642.5,220.7,1638.9,217.2,1634.6,217.2z"/>
		</g>
	</g>
	<g class="st1">
		<g>
			<g>
				<path class="st4" d="M358.2,1698.5h530.1c-4.6-40.8-10.9-79.3-19-115.2H669.6c0,0-0.1,0-0.1,0c-0.1,0-0.1,0-0.2,0h-99.1
					c-0.1,0-0.1,0-0.2,0c0,0-0.1,0-0.1,0H377.2C369.1,1619.3,362.8,1657.7,358.2,1698.5z"/>
			</g>
			<g>
				<path class="st5" d="M374.4,1596.3c-6.7,32.2-12.1,66.3-16.2,102.3h268.6v-102.3H374.4z"/>
			</g>
			<g>
				<path class="st5" d="M655.5,1536.9l104.4-195.4c-39.2-45.7-74.3-61.5-83.7-65.2H570.4c-6.9,2.7-26.7,11.6-51.6,32.9
					c-0.8,0.7-1.6,1.4-2.4,2.1c-10.7,9.4-22.2,21-34.1,35.3l101.7,190.2H655.5z"/>
			</g>
			<g>
				<path class="st4" d="M389,1536.9h142.3l-79.1-148.1C426.4,1430.2,405.2,1479.9,389,1536.9z"/>
			</g>
			<g>
				<path class="st4" d="M353.9,1745c-2.4,31.7-3.9,64.7-4.3,98.9H897c-0.4-34.2-1.9-67.2-4.3-98.9H353.9z"/>
			</g>
			<g>
				<path class="st5" d="M352.4,1765.7c-1.6,25.3-2.5,51.3-2.9,78.1h350.8v-78.1C700.3,1765.7,420.2,1765.7,352.4,1765.7z"/>
			</g>
			<g>
				<path class="st4" d="M845.6,1498.9c-15.2-44-33.6-82.9-55.1-116.2l-82.4,154.1h149.4c-3.7-13-7.7-25.6-11.9-37.8
					C845.7,1499,845.6,1498.9,845.6,1498.9z"/>
			</g>
			<g>
				<path class="st5" d="M858.4,1266.4l-72,35c10.8,11.7,21.8,25.2,32.8,40.8c22.3,31.7,41.8,68.3,58.3,109.5
					c21.3-22.1,32.6-45.9,33.5-71.2c1.3-33.8-15.8-65.7-30.3-86.5C872.8,1282.5,864.6,1273,858.4,1266.4z"/>
			</g>
			<g>
				<path class="st5" d="M366.2,1458.6c17.1-44,37.5-82.9,61.1-116.4c3-4.3,6.1-8.5,9.2-12.6c0,0,0-0.1,0.1-0.1
					c7.8-10.3,16-20,24.3-29l-82-34.7c-18.4,19.5-55.3,65.1-53.3,114.9C326.7,1408.5,340.3,1434.7,366.2,1458.6z"/>
			</g>
			<g>
				<path class="st4" d="M829.8,1357.9c18,27.9,33.9,59.2,47.8,93.8c21.3-22.1,32.6-45.9,33.5-71.2c0.6-16.6-3.1-32.7-8.9-47.3
					C877.2,1342.5,853,1350.7,829.8,1357.9z"/>
			</g>
			<g>
				<path class="st4" d="M325.6,1380.7c1.1,27.9,14.8,54,40.7,78c12-30.8,25.6-59.2,40.8-84.9c-33-12.5-56.9-27.2-73.1-39.3
					C328.4,1348.9,324.9,1364.6,325.6,1380.7z"/>
			</g>
			<g>
				<g>
					<path class="st6" d="M1301.2,1326.5c-9.7-8.4-24.4-7.3-32.7,2.5l-239.6,278.8l-87.4-165.4c9.9-19,15.2-39.1,16-60.1
						c3.4-88-75.7-158.4-79.1-161.4c-7-6.2-17.1-7.5-25.5-3.4l-102.8,49.9c-35.3-28.2-61.9-36.1-63.6-36.6c-2.1-0.6-4.2-0.9-6.4-0.9
						H566.4c-2.2,0-4.3,0.3-6.4,0.9c-1.9,0.5-19.2,5.8-44,22.2c-6,4-12,8.3-17.8,12.9l-115.6-48.9c-8.2-3.5-17.7-1.9-24.4,3.9
						c-3.4,3-82.5,73.4-79.1,161.4c1,25.8,8.8,50.1,23.3,72.7l-97.8,232.6c-1.2,2.8-1.8,5.9-1.8,9v193.9c0,12.8,10.4,23.2,23.2,23.2
						c12.8,0,23.2-10.4,23.2-23.2v-189.2l87-207c4.3,3.9,8.8,7.7,13.5,11.4c-3,9.6-5.8,19.4-8.5,29.4
						c-25.4,93.9-38.3,205.6-38.3,332.1c0,12.8,10.4,23.2,23.2,23.2h594.2c12.8,0,23.2-10.4,23.2-23.2
						c0-126.5-12.9-238.2-38.3-332.1c-3.3-12.2-6.8-24.1-10.6-35.8c5.8-5,11.2-10,16.3-15.2l92.8,175.6c3.6,6.8,10.3,11.4,17.9,12.2
						c0.9,0.1,1.7,0.1,2.6,0.1c6.7,0,13.2-2.9,17.6-8.1l261.9-304.6C1312.1,1349.6,1311,1334.9,1301.2,1326.5z M516.3,1311.3
						c0.8-0.6,1.6-1.3,2.4-2.1c25-21.4,44.7-30.2,51.6-32.9h105.9c9.4,3.7,44.5,19.5,83.7,65.2l-104.4,195.4h-71.6l-101.7-190.2
						C494.1,1332.3,505.7,1320.7,516.3,1311.3z M569.9,1583.3c0,0,0.1,0,0.1,0c0.1,0,0.1,0,0.2,0h99.1c0.1,0,0.1,0,0.2,0
						c0,0,0.1,0,0.1,0h199.8c8.1,36,14.4,74.4,19,115.2H358.2c4.6-40.8,10.9-79.3,19-115.2H569.9z M389,1536.9
						c16.3-57,37.5-106.7,63.2-148.1l79.1,148.1H389z M708.2,1536.9l82.4-154.1c21.5,33.3,39.9,72.2,55.1,116.2c0,0,0,0.1,0,0.1
						c4.2,12.2,8.2,24.8,11.9,37.8H708.2z M325.6,1380.7c-2-49.8,34.9-95.4,53.3-114.9l82,34.7c-8.4,9-16.5,18.7-24.3,29
						c0,0,0,0.1-0.1,0.1c-3.1,4.1-6.2,8.3-9.2,12.6c-23.6,33.5-44,72.5-61.1,116.4C340.3,1434.7,326.7,1408.5,325.6,1380.7z
						 M897,1843.9H349.5c0.4-34.2,1.9-67.2,4.3-98.9h538.8C895.1,1776.7,896.6,1809.7,897,1843.9z M911.1,1380.5
						c-1,25.3-12.2,49.1-33.5,71.2c-16.5-41.1-36-77.8-58.3-109.5c-11-15.6-22-29.1-32.8-40.8l72-35c6.2,6.6,14.3,16.1,22.3,27.5
						C895.3,1314.7,912.4,1346.7,911.1,1380.5z"/>
				</g>
			</g>
		</g>
		<g>
			<g>
				<circle class="st4" cx="625.4" cy="552.8" r="77.4"/>
			</g>
			<g>
				<circle class="st3" cx="651.3" cy="527" r="23.8"/>
			</g>
			<g>
				<path class="st4" d="M737.7,1292.8H513.1c-129.7,0-234.8-105.1-234.8-234.8V944.9c0-129.7,105.1-234.8,234.8-234.8h224.6
					c129.7,0,234.8,105.1,234.8,234.8V1058C972.5,1187.7,867.4,1292.8,737.7,1292.8z"/>
			</g>
			<g>
				<path class="st5" d="M869.6,779.3c33.9,47.6,53.9,105.9,53.9,168.8v0c0,160.9-130.4,291.4-291.4,291.4H520.6
					c-71.9,0-137.7-26-188.5-69.2c52.8,74.2,139.5,122.5,237.5,122.5h111.5c160.9,0,291.4-130.4,291.4-291.4v0
					C972.5,912.4,932.6,832.7,869.6,779.3z"/>
			</g>
			<g>
				<path class="st3" d="M317.2,1043.2c0-160.9,130.4-291.4,291.4-291.4h111.5c73.9,0,141.4,27.5,192.7,72.9
					C859.6,755,775.6,710.1,681.2,710.1H569.6c-160.9,0-291.4,130.5-291.4,291.4v0c0,87,38.2,165.1,98.6,218.5
					C339.5,1170.9,317.2,1109.7,317.2,1043.2L317.2,1043.2z"/>
			</g>
			<g>
				<path class="st6" d="M681.2,1316H569.6c-84,0-163-32.7-222.4-92.1c-59.4-59.4-92.1-138.4-92.1-222.4s32.7-163,92.1-222.5
					c59.4-59.4,138.4-92.1,222.4-92.1h111.5c74.6,0,147,26.6,203.7,74.9c9.8,8.3,11,23,2.6,32.7c-8.3,9.8-23,11-32.7,2.6
					c-48.4-41.1-110-63.8-173.6-63.8H569.6c-71.6,0-139,27.9-189.6,78.5s-78.5,118-78.5,189.6s27.9,139,78.5,189.6
					s118,78.5,189.6,78.5h111.5c71.6,0,139-27.9,189.6-78.5s78.5-118,78.5-189.6c0-31-5.2-61.3-15.6-90.2
					c-4.3-12.1,2-25.4,14.1-29.7c12.1-4.3,25.4,2,29.7,14.1c12.1,33.9,18.3,69.5,18.3,105.9c0,84-32.7,163-92.1,222.5
					C844.2,1283.3,765.2,1316,681.2,1316z"/>
			</g>
			<g>
				<path class="st6" d="M625.4,733.3c-12.8,0-23.2-10.4-23.2-23.2v-67.2c0-12.8,10.4-23.2,23.2-23.2s23.2,10.4,23.2,23.2v67.2
					C648.6,722.9,638.2,733.3,625.4,733.3z"/>
			</g>
			<g>
				<path class="st6" d="M625.4,659.7c-58.9,0-106.8-47.9-106.8-106.8c0-58.9,47.9-106.8,106.8-106.8c58.9,0,106.8,47.9,106.8,106.8
					C732.2,611.7,684.3,659.7,625.4,659.7z M625.4,492.4c-33.3,0-60.4,27.1-60.4,60.4c0,33.3,27.1,60.4,60.4,60.4
					c33.3,0,60.4-27.1,60.4-60.4C685.8,519.5,658.7,492.4,625.4,492.4z"/>
			</g>
			<g>
				<ellipse class="st5" cx="626.8" cy="1001.2" rx="288.9" ry="131.2"/>
			</g>
			<g>
				<ellipse class="st6" cx="626.8" cy="982.7" rx="288.9" ry="131.2"/>
			</g>
			<g>
				<g>
					<rect x="469.1" y="955.1" class="st7" width="51.5" height="77.6"/>
				</g>
				<g>
					<rect x="454.6" y="969.2" class="st7" width="32.8" height="49.4"/>
				</g>
				<g>
					<rect x="502.3" y="969.2" class="st7" width="32.8" height="49.4"/>
				</g>
			</g>
			<g>
				<g>
					<rect x="761.2" y="955.1" class="st7" width="51.5" height="77.6"/>
				</g>
				<g>
					<rect x="746.7" y="969.2" class="st7" width="32.8" height="49.4"/>
				</g>
				<g>
					<rect x="794.5" y="969.2" class="st7" width="32.8" height="49.4"/>
				</g>
			</g>
			<g>
				
					<ellipse transform="matrix(0.4321 -0.9018 0.9018 0.4321 -276.3948 1218.2902)" class="st3" cx="829.1" cy="828.6" rx="22.9" ry="42.1"/>
			</g>
		</g>
		<g>
			<g id="XMLID_1_">
				<g>
					<path class="st4" d="M1026.1,1586.1c18.2,0,33,14.8,33,33c0,18.2-14.8,33-33,33c-18.2,0-33-14.8-33-33
						C993.1,1600.9,1007.9,1586.1,1026.1,1586.1z"/>
				</g>
				<g>
					<path class="st8" d="M1026.1,1605.4c7.5,0,13.6,6.1,13.6,13.6c0,7.5-6.1,13.6-13.6,13.6c-7.5,0-13.6-6.1-13.6-13.6
						C1012.4,1611.6,1018.5,1605.4,1026.1,1605.4z"/>
				</g>
				<g>
					<path class="st6" d="M1026.1,1539.7c43.8,0,79.4,35.6,79.4,79.4s-35.6,79.4-79.4,79.4c-43.8,0-79.4-35.6-79.4-79.4
						S982.3,1539.7,1026.1,1539.7z M1059,1619.1c0-18.2-14.8-33-33-33c-18.2,0-33,14.8-33,33c0,18.2,14.8,33,33,33
						C1044.2,1652,1059,1637.2,1059,1619.1z"/>
				</g>
			</g>
		</g>
		<g>
			<g id="XMLID_2_">
				<g>
					<path class="st4" d="M227.5,1665.5c18.2,0,33,14.8,33,33c0,18.2-14.8,33-33,33c-18.2,0-33-14.8-33-33
						C194.5,1680.3,209.3,1665.5,227.5,1665.5z"/>
				</g>
				<g>
					<path class="st8" d="M227.5,1684.9c7.5,0,13.6,6.1,13.6,13.6c0,7.5-6.1,13.6-13.6,13.6c-7.5,0-13.6-6.1-13.6-13.6
						C213.8,1691,219.9,1684.9,227.5,1684.9z"/>
				</g>
				<g>
					<path class="st6" d="M227.5,1619.1c43.8,0,79.4,35.6,79.4,79.4c0,43.8-35.6,79.4-79.4,79.4c-43.8,0-79.4-35.6-79.4-79.4
						C148,1654.7,183.7,1619.1,227.5,1619.1z M260.4,1698.5c0-18.2-14.8-33-33-33c-18.2,0-33,14.8-33,33c0,18.2,14.8,33,33,33
						C245.6,1731.5,260.4,1716.7,260.4,1698.5z"/>
				</g>
			</g>
		</g>
		<g>
			<g>
				<path class="st4" d="M1261.6,1263c1.5,22.3,17.9,41.1,39.8,45.8c23.2,4.9,46.2-6.8,56.1-28.4l30.9-68l-131-12.2L1261.6,1263z"/>
			</g>
			<g>
				<path class="st5" d="M1340.8,1208c-4,24-13.9,62-38.6,100.9c22.9,4.4,45.5-7.2,55.2-28.5l30.9-68L1340.8,1208z"/>
			</g>
			<g>
				<path class="st6" d="M1430.5,1020.3c-12.5-2.9-25,5-27.8,17.5c-9.5,41.5-22.8,99.8-29.1,126.6l-13.7-1.3
					c2.2-17.6,6.3-53.4,14.4-127.9c1.4-12.7-7.8-24.2-20.6-25.6c-12.7-1.4-24.2,7.8-25.6,20.6c-4.4,40.7-11.3,103-14.5,128.6
					l-25-2.3c-1.3-20.8-6.4-85.3-9.6-125.6c-1-12.8-12.2-22.3-25-21.3c-12.8,1-22.3,12.2-21.3,25c2.9,37.2,7.3,93.6,9,117.6
					l-7.3-0.7c-6.8-0.6-13.5,1.8-18.4,6.5c-4.9,4.7-7.4,11.4-7,18.2l2.1,31.4l-51.7-27.9c-11.3-6.1-25.4-1.9-31.5,9.4
					c-6.1,11.3-1.9,25.4,9.4,31.5l77.4,41.8l0.3,3.8c1.5,21.5,10,41.3,23.5,56.8c13.5,15.5,31.9,26.8,53,31.3
					c6.5,1.4,13.2,2.1,19.8,2.1c15.1,0,30.1-3.5,43.7-10.4c19.5-9.9,35.3-26.3,44.4-46.3l44.4-97.7c3.1-6.9,2.7-14.8-1.1-21.3
					c-3.8-6.5-10.5-10.8-17.9-11.5l-4.8-0.4c7.9-34,22.3-97.1,27.7-120.6C1450.8,1035.6,1443,1023.1,1430.5,1020.3z M1357.4,1280.4
					c-9.8,21.6-32.9,33.2-56.1,28.4c-21.9-4.6-38.2-23.4-39.8-45.8l-4.2-62.7l131,12.2L1357.4,1280.4z"/>
			</g>
		</g>
		<g>
			<g>
				<path class="st5" d="M422.2,1445.3c-12.7,27.9-23.8,58.5-33.2,91.5h142.3l-0.9-1.7C479.5,1517.4,441.8,1473.1,422.2,1445.3z"/>
			</g>
			<g>
				<path class="st5" d="M708.2,1536.9h149.4c-3.7-13-7.7-25.6-11.9-37.8c0,0,0-0.1,0-0.1c-5.9-17.2-12.4-33.6-19.3-49.2
					c-47.8,44.4-85.8,71.3-118,86.8L708.2,1536.9z"/>
			</g>
		</g>
		<g>
			<path class="st8" d="M869.4,1583.3H842c5.3,26.3,13.3,68.2,20.1,115.2h26.3C883.8,1657.7,877.4,1619.3,869.4,1583.3z"/>
		</g>
		<g>
			<path class="st8" d="M892.7,1745h-24.6c3.8,33.4,6.5,67.4,6.8,98.9H897C896.6,1809.7,895.1,1776.7,892.7,1745z"/>
		</g>
	</g>
	<g class="st1">
		<g>
			<path class="st9" d="M1934.4,230.7h-514.7c-110.5,0-200,89.5-200,200V675c0,110.5,89.5,200,200,200h7.3
				c0.4,32.1-7.2,67.5-38.7,83.6c0,0,108.5,14.1,153-83.6h393.1c110.5,0,200-89.5,200-200V430.7
				C2134.4,320.2,2044.9,230.7,1934.4,230.7z"/>
			<g>
				<path class="st6" d="M1934.4,894.5c-10.8,0-19.5-8.7-19.5-19.5s8.7-19.5,19.5-19.5c99.5,0,180.5-81,180.5-180.5
					c0-10.8,8.7-19.5,19.5-19.5s19.5,8.7,19.5,19.5c0,58.6-22.8,113.8-64.3,155.2C2048.1,871.6,1993,894.5,1934.4,894.5z"/>
			</g>
			<g>
				<path class="st6" d="M1412.8,978.1c-26.7,0-46.8-3.7-47.7-3.8c-9.7-1.8-16.6-10.6-15.9-20.5c0.7-9.9,8.6-17.7,18.5-18.2
					c15.3-0.8,25.7-5.1,31-12.8c5.7-8.3,5.9-20,4.9-28.9c-52.6-3.8-101.5-26.1-139.1-63.7c-41.5-41.5-64.3-96.6-64.3-155.2V430.7
					c0-58.6,22.8-113.8,64.3-155.2s96.6-64.3,155.2-64.3h514.7c10.8,0,19.5,8.7,19.5,19.5s-8.7,19.5-19.5,19.5h-514.7
					c-99.5,0-180.5,81-180.5,180.5V675c0,99.5,81,180.5,180.5,180.5c8.4,0,15.9,5.4,18.5,13.5c1.4,4.2,12.1,39.4-3.3,69.1
					c19.8-1.9,42.3-7.1,59.2-19.3c15-10.9,23.7-26.1,26.4-46.4c1.3-9.7,9.6-16.9,19.3-16.9h90.5c10.8,0,19.5,8.7,19.5,19.5
					s-8.7,19.5-19.5,19.5h-74.6c-6.5,23.1-19.5,41.9-38.8,55.9c-24.2,17.5-57.3,26.8-98.4,27.7
					C1416.7,978.1,1414.7,978.1,1412.8,978.1z"/>
			</g>
			<g>
				<g>
					<g>
						<path class="st7" d="M1460.1,650.8h-50.5v-81.3h-21.5v81.3h-50.5V450.6h50.5v81.1h21.5v-81.1h50.5V650.8z"/>
					</g>
					<g>
						<path class="st7" d="M1574.4,488.4h-42.8v37.5h36v37.8h-36V613h44v37.8h-94.6V450.6h93.3V488.4z"/>
					</g>
					<g>
						<path class="st7" d="M1643.5,613h45.8v37.8h-96.3V450.6h50.5V613z"/>
					</g>
					<g>
						<path class="st7" d="M1753.5,613h45.8v37.8H1703V450.6h50.5V613z"/>
					</g>
					<g>
						<path class="st7" d="M1935.7,621.8l-32.5,29h-56.5l-33.5-29V479.7l33.5-29h54.3l34.8,29V621.8z M1863.9,488.4V613h21V488.4
							H1863.9z"/>
					</g>
				</g>
				<g>
					<rect x="1960.8" y="595" class="st7" width="55.8" height="55.8"/>
				</g>
			</g>
		</g>
		<path class="st3" d="M1893.5,288.9h-504.9c-18.7,0-33.8,15.1-33.8,33.8l0,0c0,18.7,15.1,33.8,33.8,33.8h504.9
			c18.7,0,33.8-15.1,33.8-33.8l0,0C1927.4,304,1912.2,288.9,1893.5,288.9z"/>
		<path class="st3" d="M2007.3,356.6L2007.3,356.6c-18.7,0-33.8-15.1-33.8-33.8v0c0-18.7,15.1-33.8,33.8-33.8l0,0
			c18.7,0,33.8,15.1,33.8,33.8v0C2041.1,341.4,2026,356.6,2007.3,356.6z"/>
	</g>
</g>
<g>
	<g>
		<path class="st7" d="M2114.4,1709.7h-809.1c-37.6,0-68-30.5-68-68v0c0-37.6,30.5-68,68-68h809.1c37.6,0,68,30.5,68,68v0
			C2182.4,1679.2,2151.9,1709.7,2114.4,1709.7z"/>
		<path class="st9" d="M2114.4,1573.6H2015v136.1h99.3c37.6,0,68-30.5,68-68l0,0C2182.4,1604.1,2151.9,1573.6,2114.4,1573.6z"/>
		<path class="st10" d="M1239.5,1659.4c7.8,29,34.2,50.3,65.7,50.3H2015v-50.3H1239.5z"/>
		<path class="st5" d="M2015,1659.4v50.3h99.3c1.2,0,2.3,0,3.5-0.1c4.6-0.2,9.2-0.9,13.5-2.1c4.3-1.1,8.5-2.7,12.5-4.6
			c1-0.5,2-1,2.9-1.5c3.9-2.1,7.5-4.6,10.8-7.3c8.4-6.9,15.1-15.8,19.4-26c1.2-2.8,2.2-5.8,3-8.8H2015z"/>
		<polygon class="st7" points="2064.3,1612.3 2145.4,1641.6 2069,1680.4 2085.8,1645.3 		"/>
	</g>
	<rect x="1304.4" y="1594" class="st6" width="10.9" height="90.5"/>
</g>
</svg>
